# xmcd
#
# Track frame offsets: 
#        150
#        13347
#        27585
#        40570
#        65700
#        80185
#        93120
#        109642
#        123087
#        133670
#        150315
#        182675
#        196840
#        205740
#        217097
#
# Disc length: 3097 seconds
#
# Revision: 4
# Processed by: cddbd v1.5.2PL0 Copyright (c) Steve Scherf et al.
# Submitted via: ExactAudioCopyFreeDBPlugin 1.0
#
DISCID=ca0c170f
DTITLE=Larry Davis - Sweet Little Angel
DYEAR=1968
DGENRE=Blues
TTITLE0=Whole World Down On You
TTITLE1=The Years Go Passing By
TTITLE2=What They Do To Me
TTITLE3=Three O'Clock Blues
TTITLE4=I've Been Hurt So Many Times
TTITLE5=Rock Me Baby
TTITLE6=Something About You
TTITLE7=For Five Long Years
TTITLE8=You Upset Me Baby
TTITLE9=A Letter To My Darling
TTITLE10=Sweet Sixteen
TTITLE11=Woke Up This Morning
TTITLE12=Driving Wheel
TTITLE13=It Can Only Hurt For So Long
TTITLE14=Sweet Little Angel
EXTD=
EXTT0=
EXTT1=
EXTT2=
EXTT3=
EXTT4=
EXTT5=
EXTT6=
EXTT7=
EXTT8=
EXTT9=
EXTT10=
EXTT11=
EXTT12=
EXTT13=
EXTT14=
PLAYORDER=
